<svg width="581" height="209" viewBox="0 0 581 209" fill="none" xmlns="http://www.w3.org/2000/svg">
<path d="M186.912 162.72H154.08V205.056H108.576V162.72H-1.01328e-06V131.328L95.04 3.45589H144L55.872 124.704H110.016V86.9759H154.08V124.704H186.912V162.72ZM287.267 208.512C270.563 208.512 255.683 204.384 242.627 196.128C229.571 187.872 219.299 175.968 211.811 160.416C204.514 144.672 200.866 125.952 200.866 104.256C200.866 82.5599 204.514 63.9359 211.811 48.3839C219.299 32.6399 229.571 20.6399 242.627 12.3839C255.683 4.1279 270.563 -9.53674e-05 287.267 -9.53674e-05C303.971 -9.53674e-05 318.851 4.1279 331.907 12.3839C344.963 20.6399 355.139 32.6399 362.435 48.3839C369.923 63.9359 373.667 82.5599 373.667 104.256C373.667 125.952 369.923 144.672 362.435 160.416C355.139 175.968 344.963 187.872 331.907 196.128C318.851 204.384 303.971 208.512 287.267 208.512ZM287.267 169.056C299.555 169.056 309.155 163.776 316.067 153.216C323.171 142.656 326.723 126.336 326.723 104.256C326.723 82.1759 323.171 65.8559 316.067 55.2959C309.155 44.7359 299.555 39.4559 287.267 39.4559C275.171 39.4559 265.571 44.7359 258.467 55.2959C251.555 65.8559 248.099 82.1759 248.099 104.256C248.099 126.336 251.555 142.656 258.467 153.216C265.571 163.776 275.171 169.056 287.267 169.056ZM580.943 162.72H548.111V205.056H502.607V162.72H394.031V131.328L489.071 3.45589H538.031L449.903 124.704H504.047V86.9759H548.111V124.704H580.943V162.72Z" fill="#FF6060"/>
</svg>
